<?xml version="1.0" encoding="utf-8"?>
<svg version="1.0" xmlns="http://www.w3.org/2000/svg" width="640.000000pt" height="640.000000pt" viewBox="0 0 640.000000 640.000000" preserveAspectRatio="xMidYMid meet">
  <ellipse style="stroke: rgb(0, 0, 0); fill: rgb(239, 191, 4);" cx="319.849" cy="321.417" rx="296.688" ry="296.688"/>
  <ellipse style="stroke: rgb(0, 0, 0); fill: rgb(130, 203, 229);" cx="320.683" cy="320" rx="199.658" ry="199.658"/>
  <path d="M 288.5 19.5 C 273.1 21.1 260.9 23.3 244 27.5 C 185.9 42 131.8 75.6 91.8 121.8 C 43 178.3 18 245.9 18 321 C 18.1 370.4 27.2 409.9 49 454.5 C 57.7 472.3 70.9 494 73 494 C 73.6 494 73.9 494.4 73.6 494.8 C 73.4 495.2 76.1 499.4 79.6 504 C 117.4 553.1 169 590.2 224.7 608.4 C 235.5 612 254.5 617.2 261 618.4 C 284.2 622.9 299.5 624.4 319.5 624.4 C 385.5 624.3 447.3 603.3 501.5 562.6 C 525.9 544.3 546.7 522.8 566.1 496 C 603.8 444 623.8 377.6 621.7 312 C 619.1 231.8 589.4 162.8 533 105.9 C 491.8 64.2 438.1 35.3 381 24 C 351.9 18.2 317 16.5 288.5 19.5 Z M 353 30.5 C 387.7 34.2 417.9 43.1 450.1 59.2 C 540.2 104.2 600.7 193.4 609.9 295 C 620.7 412.9 557.8 526.4 451.6 581.1 C 397.5 609 337.7 619.1 278 610.4 C 255.1 607.1 224.2 598 201.7 588 C 178.5 577.6 152.7 561.3 133.2 544.7 C 122 535.1 100.3 512.9 91.6 502 C 56.8 458.4 36.2 408 30.1 350.8 C 28.5 336.8 28.8 303.7 30.5 288 C 41 193.1 96 110.8 180.8 63.6 C 210.9 46.8 247.9 35 284.3 30.6 C 299.5 28.7 336.2 28.7 353 30.5 Z" stroke="none" style="fill: rgb(10, 65, 96);"/>
  <path d="M 307 73 L 307 93 L 320.5 93 L 334 93 L 334 89 L 334 85 L 325.5 85 L 317 85 L 317 81 L 317 77 L 324 77 L 331 77 L 331 72.4 L 331 67.9 L 325.9 68.3 C 318.4 69 317 68.4 317 64.4 L 317 61 L 325 61 L 333 61 L 333 57 L 333 53 L 320 53 L 307 53 L 307 73 Z" stroke="none" style="fill: rgb(10, 65, 96);"/>
  <path d="M 284.5 59.7 C 284.8 62.9 285.4 66.5 285.7 67.6 C 286.1 69.6 285.5 69.9 279.4 70.9 C 271.4 72.3 271.4 72.3 270.4 63.2 L 269.7 56.8 L 266.1 57.4 C 264.1 57.7 261.9 58 261.1 58 C 259.6 58 259.6 58.2 263.6 83 C 265 91.5 266.2 98.6 266.4 98.7 C 266.8 99.1 275 97.4 275.5 96.8 C 275.7 96.7 275.2 93.3 274.4 89.5 C 273.7 85.6 273.1 82 273 81.4 C 273 79.9 286.3 77.9 287.1 79.3 C 287.5 79.8 288.1 83.1 288.5 86.4 C 289.3 94.7 289.8 95.2 294.8 94.4 C 297.1 94 299 93.5 299 93.1 C 299 92.8 297.8 83.8 296.3 73.2 L 293.5 54 L 288.6 54 L 283.8 54 L 284.5 59.7 Z" stroke="none" style="fill: rgb(10, 65, 96);"/>
  <path d="M 364.7 59.6 C 364.4 61.2 362.5 69.9 360.6 79 C 358.7 88.1 357.4 95.8 357.8 96.1 C 359.3 97.4 376.5 100.1 379.6 99.5 C 383.2 98.9 387.6 94.4 388.6 90.4 C 390.4 83.2 385.9 77.1 377 75 L 371.8 73.8 L 372.5 70.1 C 372.9 68.1 373.3 66.4 373.4 66.3 C 373.5 66.2 377.1 67 381.5 68 C 385.8 69.1 389.5 69.8 389.7 69.6 C 389.9 69.4 390.3 67.7 390.6 65.8 L 391.2 62.3 L 381.7 60.1 C 365.5 56.3 365.4 56.3 364.7 59.6 Z M 376.8 83.6 C 381.2 86.7 378.7 92 372.8 92 C 368.9 92 368.1 90.8 368.7 86.2 C 369.2 82.5 369.6 82 371.9 82 C 373.4 82 375.6 82.7 376.8 83.6 Z" stroke="none" style="fill: rgb(10, 65, 96);"/>
  <path d="M 241.2 63.4 C 237.2 64.8 236.6 65.7 233.9 74.7 C 232.8 78.4 231.7 82.2 231.4 83 C 231 83.9 229.6 81.4 227.8 77 C 226.2 72.9 224.7 69.4 224.5 69.2 C 223.9 68.6 217 72.4 217 73.4 C 217 74 217.9 76.9 219 79.8 C 222.2 88.2 221.8 88.4 212.6 82.9 L 204.2 77.9 L 200 80 C 197.7 81.2 196 82.3 196.2 82.5 C 196.3 82.7 200.6 85.1 205.5 88 C 210.5 90.9 214.6 93.3 214.7 93.3 C 214.8 93.4 213.8 99.4 212.4 106.5 C 211.1 113.7 210 119.8 210 120.3 C 210 120.7 212.2 119.9 214.9 118.6 C 220.3 115.8 219.7 117.2 222.5 99.2 C 222.9 96.9 223.5 95.2 223.9 95.4 C 224.3 95.7 225.9 99.1 227.4 102.9 C 228.9 106.8 230.7 110 231.4 110 C 234.1 110 239.1 107.7 238.7 106.6 C 234.7 95.3 233.7 91.9 234.3 91.4 C 234.6 91.1 238.3 93.6 242.5 97 C 250.6 103.6 251.2 103.8 258.5 101 C 261.3 99.9 261.4 99.8 259.5 98.8 C 258.4 98.1 254 94.8 249.6 91.3 C 245.3 87.8 241.1 84.6 240.2 84.1 C 238.7 83.3 239.3 81.3 245.8 63.2 C 246.3 61.8 245.6 61.8 241.2 63.4 Z" stroke="none" style="fill: rgb(10, 65, 96);"/>
  <path d="M 398.1 85 C 394.1 95.5 390.9 104.2 391.1 104.3 C 391.3 104.5 393.2 105.3 395.3 106.3 L 399 108 L 401.5 102.4 C 402.9 99.3 404 96.4 404 95.9 C 404 95.4 405.6 95.7 407.6 96.5 C 409.6 97.3 413.4 98 416.1 98 C 420.1 98 421.6 97.5 424.5 94.9 C 429 90.9 430.6 85.4 428.6 80.7 C 426.6 75.7 422.5 72.4 415.1 69.6 C 411.5 68.3 407.8 66.9 407 66.6 C 405.8 66.1 403.9 70.2 398.1 85 Z M 416 78.5 C 419.5 80.3 420.5 83.1 418.9 86.2 C 416.8 90.2 413 91.2 409.6 88.7 C 407.9 87.4 407.9 87.2 409.6 82.2 C 410.6 79.3 411.8 77 412.3 77 C 412.7 77 414.4 77.7 416 78.5 Z" stroke="none" style="fill: rgb(10, 65, 96);"/>
  <path d="M 435 98.1 C 427.6 104.7 420.4 111.2 419.1 112.5 L 416.7 114.8 L 421 117 L 425.3 119.2 L 428.3 116.2 L 431.3 113.2 L 437.2 116.8 L 443.1 120.5 L 442.5 124.6 C 441.9 128.6 442.1 128.9 445.6 130.9 C 447.6 132.1 449.3 133 449.5 132.8 C 449.6 132.6 451.9 123.7 454.6 112.9 L 459.6 93.3 L 456.5 91.3 C 447.6 85.5 450.1 84.7 435 98.1 Z M 447.8 105.8 L 445.5 113 L 441.6 110.4 L 437.8 107.8 L 443.6 101.8 C 446.9 98.6 449.6 96.5 449.8 97.2 C 449.9 97.9 449 101.8 447.8 105.8 Z" stroke="none" style="fill: rgb(10, 65, 96);"/>
  <path d="M 179.3 91.1 L 176.1 93.1 L 186.7 109.8 C 192.4 119 197.6 126.9 198 127.4 C 199.4 128.8 206.2 124 205.5 122.1 C 204 118.3 184.7 89 183.6 89.1 C 183 89.1 181.1 90.1 179.3 91.1 Z" stroke="none" style="fill: rgb(10, 65, 96);"/>
  <path d="M 154.5 109.2 C 149 113.6 144.6 117.7 144.8 118.2 C 144.9 118.7 146.8 121.5 148.9 124.3 C 153 129.7 160 142.6 160 144.7 C 160 145.4 159.3 146.3 158.4 146.8 C 157.1 147.5 157 148.1 157.9 149.9 C 158.6 151 159.6 152 160.3 152 C 161 152 162.9 153.7 164.7 155.7 L 167.8 159.5 L 170.4 157.1 L 173 154.6 L 170.8 152.3 C 169.4 150.8 168.9 149.6 169.6 149.2 C 170.2 148.8 174.4 145.8 178.9 142.6 L 187.2 136.7 L 189.5 139.6 L 191.8 142.5 L 194.9 139.6 C 196.6 137.9 198 136.4 198 136.1 C 197.9 135.8 195.7 133.1 193 130.1 C 188.8 125.3 188 124.8 186.6 126 C 184.7 127.5 185.8 128.7 174 112.2 C 169.5 106.1 165.6 101 165.2 101 C 164.8 101 160 104.7 154.5 109.2 Z M 170.1 120.7 C 173.6 125 177.1 129.2 177.7 130.1 C 178.8 131.6 178.2 132.3 173.6 135.8 L 168.2 139.9 L 167 137 C 166.3 135.4 163.8 130.6 161.3 126.3 L 156.9 118.5 L 160 115.7 C 161.7 114.2 163.2 113 163.4 113 C 163.6 113 166.6 116.5 170.1 120.7 Z" stroke="none" style="fill: rgb(10, 65, 96);"/>
  <path d="M 468.9 104.1 L 466.7 107.2 L 470.8 110.9 L 474.9 114.5 L 465.1 126 L 455.2 137.5 L 458.3 140.2 C 460.1 141.7 461.8 142.9 462.2 143 C 462.6 143 467.3 137.9 472.8 131.6 L 482.7 120.3 L 486.7 123.6 L 490.6 126.8 L 493.4 123.4 C 494.9 121.4 496 119.7 495.8 119.6 C 488 113 472.6 101 472 101 C 471.5 101 470.1 102.4 468.9 104.1 Z" stroke="none" style="fill: rgb(10, 65, 96);"/>
  <path style="stroke: rgb(0, 0, 0); fill: rgb(239, 191, 4);" d="M 143.925 413.88 L 173.257 368.639 L 207.56 365.656 L 224.96 375.102 L 260.258 355.216 L 218 326.381 L 178.725 310.473 L 154.862 283.074 L 173.257 228.388 L 200.6 209.496 L 254.292 227.393 L 276.167 285.56 L 322.899 315.886 L 375.894 270.014 L 389.281 224.735 L 449.521 210.955 L 480.255 255.208 L 481.808 292.875 L 430.549 328.213 L 402.978 335.203 L 384.727 356.949 L 417.346 374.812 L 453.072 361.609 L 485.691 384.908 L 495.562 418.951 L 457.969 472.887 L 422.206 493.924 L 380.832 469.38 L 350.95 447.52 C 350.95 447.52 335.012 425.606 334.614 425.606 C 334.216 425.606 319.075 418.036 319.075 418.036 L 304.332 435.567 L 237.939 482.671 L 209.556 490.99 L 164.269 454.096 L 143.925 413.88 Z"/>
  <path d="M 291 112.5 C 245.5 119.4 205.8 139.9 171.5 174.4 C 141.8 204.2 122.3 241.8 114.5 283.7 C 107.7 320.7 111.6 362.4 125 396.2 C 144.5 445.4 177.1 481.3 225.1 506.3 C 254.9 521.9 284.7 529.2 318.5 529.1 C 369.2 529.1 412.8 513.8 452.5 482.2 C 505.2 440.2 534.4 370.2 528 301.5 C 522.7 245.2 496.6 196.2 451.9 158.5 C 427.2 137.8 395.5 122.2 363.5 115 C 345.8 111 309.1 109.8 291 112.5 Z M 346.5 123.6 C 394.4 130.1 437 153.6 469.6 191.3 C 510.7 239 526.5 299.6 513.9 361.3 C 511.7 372.1 505.7 391.1 501.6 400.5 L 498.9 406.5 L 493.5 396.2 C 473.8 358.7 455.2 350.3 423.8 365.2 L 415.1 369.3 L 405.8 364.5 C 390.9 356.9 389.7 356.1 391.2 354.2 C 394.4 350.4 413.2 335 415.2 334.6 C 416.5 334.4 421.2 333.5 425.6 332.7 C 440.1 330.1 455.1 321.3 472.3 305.5 C 487.7 291.3 491.1 283.2 485.9 273.5 C 484.3 270.5 483.8 268 483.9 263.2 C 484.2 255.2 482.8 251.2 478.5 247 C 476.3 244.9 475 242.7 475 241.1 C 475 233.8 470.6 226.3 465.1 224 C 463.3 223.3 461.7 221.6 461.1 219.7 C 458.3 211.8 450.6 206 442.5 205.7 C 439.3 205.6 436.4 206.5 431.1 209.3 C 425.2 212.4 423.1 213 417.9 213 C 408.2 213 399.6 214.9 394.6 218.1 C 385.9 223.5 374.7 242.1 371.4 256.5 C 366.5 277.5 367.4 275.7 358 283.3 C 353.3 287 344.8 293.5 339 297.7 C 333.2 301.9 326.9 306.6 324.8 308.1 L 321.2 311 L 315.8 307.3 C 310.2 303.4 294.3 291.9 282.3 282.9 C 274.4 277.1 273.8 276 271 261 C 268.5 247.3 261.6 233.1 252.9 223.6 C 246.5 216.6 240.2 214 227.5 213.3 C 219.9 212.9 217.2 212.3 210.7 209.3 C 199 204 192.4 204.7 185.1 212 C 183.4 213.7 181.5 216.8 180.9 218.8 C 180 221.6 178.8 223 175.7 224.5 C 170.4 227.1 168.3 230.2 166.7 237.5 C 165.7 242.4 164.6 244.3 161.3 247.5 C 158 250.8 157 252.6 156.5 256.4 C 156.1 259.1 156.1 262.9 156.6 264.9 C 157.4 267.9 157.2 269.1 155.3 271.9 C 151.8 277.1 152.1 286.1 155.8 292.1 C 158.7 296.7 173.3 310.4 183.1 317.8 C 191.5 324.1 208.1 331.6 218 333.5 C 227.9 335.5 232.8 338.3 243.9 348.5 C 252.5 356.5 253.1 355.2 236.7 363.6 L 225.8 369.2 L 218.3 365.5 C 201.1 357.3 186.9 355.9 176 361.5 C 164.7 367.2 150.6 385.4 144.3 402.2 C 143.4 404.9 142.3 407 142 407 C 141.3 407 135.2 393 132.4 384.6 C 125.1 363.3 122.5 346.5 122.6 320 C 122.6 298.2 123.3 292.1 128.1 272.8 C 141.9 216.8 180.7 168.9 234 142 C 268.7 124.6 307.2 118.2 346.5 123.6 Z M 206 217 C 209.8 218.9 216.2 222.9 231 232.5 C 244.5 241.3 245.4 240.6 234.6 229.5 C 226.4 221.3 226.7 220.5 236.7 223.5 C 240.3 224.6 242.9 226.3 246.2 229.8 C 254.6 238.7 259.4 249.6 263.6 268.7 C 264.9 274.9 266.6 281 267.3 282.1 C 268.3 283.9 302.2 310.1 309.9 315.1 C 312.4 316.7 312.4 316.7 299.4 325.6 C 292.3 330.5 280.7 338.1 273.5 342.6 L 260.5 350.8 L 256 346.8 C 234.9 328.2 230.1 325 223.8 325 C 215.2 325 197.4 317.2 185.9 308.6 C 175.1 300.4 162.3 287.5 161.5 283.9 C 160.9 281.2 162.4 275 163.7 275 C 164 275 167.5 277 171.4 279.5 C 181.5 285.8 185.8 285.5 178.4 279 C 176.4 277.3 172.6 273.4 169.9 270.3 C 165.8 265.6 165 264.1 165 260.6 C 165 257.6 165.7 255.9 167.7 253.8 C 169.2 252.3 170.9 251 171.4 251 C 172 251 175.9 253.3 180 256 C 187.1 260.7 190 262 190 260.2 C 190 259.8 186.6 256.1 182.5 252 C 175.8 245.3 175 244.2 175 240.7 C 175 237.8 175.7 236.1 177.9 233.9 C 181.9 230 184.9 230.2 194.9 235 C 199.5 237.2 203.4 238.9 203.7 238.7 C 203.9 238.4 191.3 227.6 188.2 225.4 C 187.3 224.8 189.5 220.6 192 217.9 C 195.6 214.4 200.2 214 206 217 Z M 447.8 216.6 C 449 217.4 450.7 219.5 451.6 221.3 C 453.2 224.3 453.2 224.5 450.9 226 C 446.5 228.9 437 237.2 437 238.1 C 437 238.6 440.6 237.2 445 235 C 456 229.5 461.6 229.7 464.8 235.7 C 467.1 240 465.8 245.6 461.6 249.5 C 461 250.1 458.3 252.9 455.5 255.8 C 449.1 262.5 451.4 262.6 461.4 255.9 C 469.6 250.5 471.1 250.4 474.4 255.4 C 478.1 261.1 476.6 264.4 464.1 277.2 C 459.6 281.9 458.1 284 459.3 284 C 461.5 284 467.3 281 471.9 277.6 C 473.8 276.2 475.7 275 476.2 275 C 476.6 275 477.7 276.4 478.5 278.1 C 479.8 280.5 479.9 281.8 479 284.5 C 477.7 288.4 462.6 303.4 452.8 310.3 C 440.7 318.9 425.2 325 415.2 325 C 413.2 325 410.2 325.8 408.5 326.8 C 401.5 331.1 382.8 348.9 339.5 392.4 C 314.2 417.8 289.7 441.7 285 445.6 C 274.4 454.4 259.4 464.8 251.5 468.8 C 248.2 470.4 240.6 474.7 234.7 478.3 C 223.7 485 218.1 486.8 212.3 485.6 C 207.7 484.5 191.3 472.2 180.3 461.6 C 171 452.6 156.5 434.5 150.6 424.5 L 148.2 420.5 L 150.4 413.5 C 151.6 409.6 154.8 402.1 157.5 396.7 C 166 379.7 175.5 370.3 186.4 368 C 193.9 366.5 200.5 367.7 211.8 372.7 L 217.2 375 L 209.8 381.9 C 202.6 388.7 197.9 395.9 196.5 402.5 C 195.9 405.2 196.3 405 201.4 399.4 C 210.1 389.8 219.9 383 240 372.4 C 276.9 353 317.8 326.1 363.3 291.2 C 373.9 283.1 375 281.3 377.4 269.5 C 379.7 258.1 381.6 252.5 385.6 244.5 C 390.5 234.8 396.4 227.4 400.8 225.1 C 404.3 223.3 414 221.2 414 222.2 C 414 222.5 410.9 225.8 407 229.7 C 399.8 236.8 397.9 240.2 402.3 237.9 C 403.5 237.3 408.3 234.2 412.9 231.2 C 433.9 217.5 438.4 215 442 215 C 443.9 215 446.6 215.7 447.8 216.6 Z M 393.9 368.6 C 417.3 381.1 425.1 386.3 435.3 396 C 445.9 406.1 446.4 406 441.3 395 C 439.6 391.5 436 386.8 431.3 382.2 C 427.2 378.1 424 374.7 424.2 374.6 C 424.4 374.5 427.3 373.2 430.7 371.7 C 447.3 364.4 459.4 366.5 471.1 378.7 C 477.8 385.6 485.5 399.8 490.1 413.2 L 492.1 419.3 L 488.3 425.4 C 475.4 446.4 453.8 469.6 435.7 481.9 C 426.9 487.9 420.5 487.2 406.9 478.8 C 402.3 476 394.2 471.3 389 468.5 C 383.8 465.7 377.5 462.1 375 460.5 C 361.2 451.6 343.7 436.3 332.9 423.9 L 327.8 418 L 330.5 414.8 C 335.1 409.2 381.3 363 382.3 363 C 382.9 363 388.1 365.5 393.9 368.6 Z M 328.6 433.1 C 332.4 437.6 339.3 444.6 344 448.7 C 354 457.4 376.2 472.6 385.8 477.1 C 389.5 478.8 395.2 482 398.5 484.3 C 401.8 486.5 407.1 489.5 410.4 491 L 416.3 493.7 L 409.8 497.4 C 397 504.5 373.1 512.5 355.6 515.5 C 321.7 521.2 285.6 518.7 256 508.3 C 244.3 504.3 224.1 495.1 224 493.9 C 224 493.5 225.2 493 226.8 492.7 C 228.3 492.4 233.1 489.9 237.5 487.3 C 241.9 484.6 249.8 480.1 255.1 477.2 C 273.4 467.3 295.7 450.1 313.5 432.1 C 317.3 428.2 320.7 425 321.1 425 C 321.4 425 324.8 428.7 328.6 433.1 Z" stroke="none" style="fill: rgb(10, 65, 96);"/>
  <g>
    <rect x="312.214" y="145.541" width="17.146" height="129.98" style="stroke: rgb(0, 0, 0); fill-rule: nonzero; paint-order: fill; stroke-width: 0px; fill: rgb(239, 191, 4);"/>
    <rect x="277.921" y="179.28" width="85.178" height="21.018" style="stroke: rgb(0, 0, 0); fill-rule: nonzero; paint-order: fill; stroke-width: 0px; fill: rgb(239, 191, 4);"/>
  </g>
  <path d="M 307 158.5 L 307 176 L 290.5 176 L 274 176 L 274 190.5 L 274 205 L 290.5 205 L 307 205 L 307.2 242.2 L 307.5 279.5 L 320.8 279.8 L 334 280.1 L 334 242.5 L 334 205 L 350.9 205 L 367.9 205 L 367.7 190.7 L 367.5 176.5 L 350.8 176.2 L 334 176 L 334 158.5 L 334 141 L 320.5 141 L 307 141 L 307 158.5 Z M 325.6 167.2 L 325.5 184.5 L 341.7 184.8 L 357.8 185 L 358.2 190.6 C 358.3 193.7 358.3 196.4 358.1 196.6 C 357.9 196.8 350.4 197 341.6 197 L 325.5 197 L 325.4 233.8 L 325.3 270.5 L 320.6 270.8 L 316 271.1 L 316 234.1 L 316 197 L 299.5 197 L 283 197 L 283 191 L 283 185 L 299.5 185 L 316 185 L 316 167.5 L 316 150 L 320.9 150 L 325.8 150 L 325.6 167.2 Z" stroke="none" style="fill: rgb(10, 65, 96);"/>
  <path d="M 270.5 432.1 C 261.7 438.7 247.8 448.6 239.5 454.2 C 225.1 463.9 224.7 464.2 229 463.6 C 234.1 462.8 245.2 457.9 253.4 452.6 C 260.9 447.8 289.7 419.7 286.8 420 C 286.6 420.1 279.3 425.5 270.5 432.1 Z" stroke="none" style="fill: rgb(10, 65, 96);"/>
  <path d="M 354.8 421.7 C 356.6 425 382 449 387.4 452.4 C 396.6 458.3 414 465.3 415.6 463.7 C 415.8 463.6 409.8 459.3 402.2 454.3 C 394.7 449.3 382.2 440.6 374.5 434.8 C 353.7 419.4 353.6 419.3 354.8 421.7 Z" stroke="none" style="fill: rgb(10, 65, 96);"/>
  <path d="M 496.5 131 C 489.5 132.5 482.3 138.7 479.4 145.6 C 474.7 156.8 482.7 169.9 495.3 171.6 L 500 172.3 L 500 167.6 C 500 163.2 499.9 163 497.1 163 C 493.5 163 488.5 159 487.6 155.5 C 486.2 150.1 493 141.7 499.9 140.4 C 502.5 139.9 503.5 140.3 506.5 143.3 C 509.7 146.5 510 147.3 509.4 150.4 C 508.9 153.6 509.1 154.1 511.3 154.9 C 516.6 157 517.3 156.7 518.2 152.6 C 520.7 141 508.1 128.5 496.5 131 Z" stroke="none" style="fill: rgb(10, 65, 96);"/>
  <path d="M 127.6 136.4 C 120.1 139.2 114 147.5 114 154.8 C 114 160.3 118.6 168.8 123.7 172.7 C 128.3 176.1 134.8 177.7 139.9 176.5 C 144.1 175.6 152.6 167.7 154 163.4 C 157 154.4 152.8 144.3 143.7 138.7 C 138.3 135.3 132.8 134.5 127.6 136.4 Z M 138.7 146.7 C 143 149.4 147 155.3 147 158.8 C 147 161.5 143.6 165.5 140 167 C 135.9 168.7 132.3 167.1 127 161.4 C 121.9 155.8 121.5 151.3 125.9 146.9 C 129.6 143.2 133.3 143.2 138.7 146.7 Z" stroke="none" style="fill: rgb(10, 65, 96);"/>
  <path d="M 521.8 156.2 L 519.1 158.3 L 522.6 163.3 C 524.5 166 526 168.3 525.8 168.4 C 525.6 168.5 520.2 172.4 513.8 176.9 C 501.2 185.8 501.5 185.4 505.8 190.8 L 507.6 193.1 L 516 186.7 C 520.7 183.3 526 179.3 527.9 178 L 531.3 175.7 L 533.9 178.8 C 536.4 181.9 536.6 181.9 540.1 180.7 L 543.7 179.5 L 537.1 169.5 C 525.6 152.1 526.3 152.7 521.8 156.2 Z" stroke="none" style="fill: rgb(10, 65, 96);"/>
  <path d="M 96.7 174.8 C 90.9 184 87.6 190 88.2 190.4 C 88.4 190.6 93.5 194 99.5 198 C 111.5 205.9 113 207.3 113 210.6 C 113 214 119.2 215.5 120.4 212.4 C 123 205.6 119 199.6 106.3 191.1 C 102.8 188.8 100 186.6 100 186.2 C 100 185.3 103.8 179 104.4 179 C 104.7 179 110.5 182.7 117.5 187.1 C 124.4 191.6 130.2 195.1 130.4 194.9 C 132.6 191.9 135.1 187.8 134.9 187.6 C 134.1 186.9 110.3 171.2 106.3 168.7 L 102.1 166.1 L 96.7 174.8 Z" stroke="none" style="fill: rgb(10, 65, 96);"/>
  <path d="M 531.3 195.2 L 514.1 204 L 518 211.3 C 520.1 215.2 523.1 220 524.8 221.7 C 527.3 224.5 528.4 225 532.5 225 C 536.5 225 537.7 224.5 540.6 221.6 C 542.5 219.7 544 217.6 544 216.8 C 544 215.8 545.1 215.5 547.8 215.8 C 550.8 216.1 552.3 215.6 554.7 213.6 C 559.6 209.4 559.8 206 555.6 197.6 C 549.2 184.8 551.2 185 531.3 195.2 Z M 548.8 199.5 C 551.2 204.8 549.9 208 545.4 208 C 544.2 208 540 202.6 540 200.9 C 540 200.4 545.8 197.2 547.1 197.1 C 547.4 197 548.2 198.1 548.8 199.5 Z M 535.6 207.1 C 537.5 210.9 536.7 214.8 533.7 215.9 C 531.1 216.9 529.5 215.9 526.9 211.5 L 525 208.5 L 529.3 206.3 C 531.6 205.1 533.6 204.1 533.7 204 C 533.8 204 534.7 205.4 535.6 207.1 Z" stroke="none" style="fill: rgb(10, 65, 96);"/>
  <path d="M 83 206 C 77.9 208.7 74.4 212.8 72.6 218.3 C 70.6 224.4 70.6 226.5 72.9 231.5 C 76.9 240.5 87.7 245.9 97.2 243.9 C 103.7 242.5 109.3 237.5 111.4 231.3 C 113.5 225.3 113.4 222.4 111.1 217.5 C 106 206.4 92.5 200.9 83 206 Z M 96.5 215.9 C 103.3 219 106.1 223.9 104 229 C 102.8 231.9 97.8 235 94.3 235 C 91.3 235 82.2 230.3 81.1 228.1 C 80.5 227 80 224.5 80 222.5 C 80 215 87.8 211.9 96.5 215.9 Z" stroke="none" style="fill: rgb(10, 65, 96);"/>
  <path d="M 547.6 225.5 C 537 229.3 531 242.9 535.4 253.3 C 537.9 259.4 546.5 265 553.5 265 C 564.3 265 573.9 255 574 243.8 C 574 238 572.7 234.4 569.2 230.6 C 563.6 224.6 555.4 222.7 547.6 225.5 Z M 563.5 236.5 C 568.4 241.3 566.2 249.1 559 252.7 C 553.1 255.7 548.9 255.6 545.1 252.4 C 539.5 247.7 541.3 240 548.8 236 C 554.2 233.2 560.5 233.4 563.5 236.5 Z" stroke="none" style="fill: rgb(10, 65, 96);"/>
  <path d="M 63.1 247.7 C 60.6 257.1 60 255.9 70.9 263 C 76.4 266.6 80.7 269.6 80.6 269.7 C 80.5 269.9 76.8 270.4 72.4 271 C 57.1 273 58.3 272.5 57.1 278.1 C 56.5 280.8 56 283.5 56 284 C 56 284.9 90.7 293.6 91.4 292.9 C 91.6 292.7 92.1 290.8 92.5 288.8 C 93.2 285.1 93.2 285.1 88.8 284 C 86.5 283.4 80.9 281.9 76.5 280.7 L 68.5 278.6 L 78.5 277.3 C 93.4 275.4 96.4 274.7 96.7 273 C 96.8 272.1 92.6 268.7 85.4 264.1 C 79.1 260.1 74.1 256.5 74.3 256.3 C 74.6 256.1 80.3 257.3 87 259 C 93.7 260.7 99.4 262 99.5 261.8 C 99.7 261.6 100.1 259.8 100.5 257.8 L 101.2 254.1 L 94.3 252.1 C 90.6 251 83 249 77.5 247.5 C 72 246.1 66.7 244.7 65.8 244.4 C 64.5 244 63.9 244.8 63.1 247.7 Z" stroke="none" style="fill: rgb(10, 65, 96);"/>
  <path d="M 129.8 465 C 116.7 467.3 108.1 483.3 113.9 494.7 C 117.8 502.5 126.8 507.8 133.6 506.6 C 137.4 505.8 137.4 505.9 135.9 500.7 C 135 497.2 134.7 497 131 497 C 128 497 126.7 496.4 124.6 493.9 C 119.8 488.2 122.4 479.8 130.3 475.7 C 134.7 473.4 138.1 474 141.7 477.6 C 143.9 479.8 144.2 480.8 143.7 484.5 L 143.1 488.8 L 147.7 489.9 C 150.2 490.6 152.5 490.8 152.8 490.6 C 153.1 490.3 153.4 487.3 153.4 484.1 C 153.5 479 153 477.5 150.5 473.9 C 145.6 466.9 138 463.7 129.8 465 Z" stroke="none" style="fill: rgb(10, 65, 96);"/>
  <path d="M 487.2 474.3 L 483 478.5 L 485 481.8 C 486.1 483.5 490.7 492.1 495.3 500.9 L 503.6 516.8 L 507.3 513.4 L 511 510 L 508.8 505.5 L 506.6 500.9 L 511.7 495.8 L 516.8 490.7 L 520.8 492.3 L 524.9 493.9 L 528.1 489.9 C 529.8 487.7 531.1 485.8 530.9 485.6 C 529 484.3 494 470 492.6 470 C 491.9 470 489.5 471.9 487.2 474.3 Z M 505.4 484.4 L 509.3 486 L 506 489.5 C 504.1 491.4 502.3 493 502 493 C 501.7 493 499.7 489.8 497.6 485.9 L 493.8 478.8 L 497.6 480.8 C 499.8 481.9 503.3 483.5 505.4 484.4 Z" stroke="none" style="fill: rgb(10, 65, 96);"/>
  <path d="M 161.8 492.8 C 159.1 495.7 140.9 518.6 139.7 520.7 C 138.8 522.1 152.4 532.7 157.8 534.9 C 162.4 536.8 167.3 535.6 170.5 531.8 C 172.8 529.1 173.1 527.9 172.7 524.4 C 172.3 520.2 172.3 520.2 176 519.6 C 182.1 518.6 185 513.6 183 507.5 C 181.9 504.2 177.1 499.5 167.9 492.7 L 164.3 490 L 161.8 492.8 Z M 173.5 508.1 C 175 512.9 169 514.6 164.4 510.7 L 161.8 508.4 L 164.5 505.2 L 167.2 502 L 170 504 C 171.6 505.1 173.2 507 173.5 508.1 Z M 161.2 517.7 C 164.4 520.7 164.7 523.1 162.4 525.4 C 160.2 527.6 158.9 527.4 155 524.1 L 151.5 521.2 L 154.4 518.1 C 156.1 516.4 157.6 515 157.9 515 C 158.2 515 159.7 516.2 161.2 517.7 Z" stroke="none" style="fill: rgb(10, 65, 96);"/>
  <path d="M 465.8 495.2 L 462.1 498.3 L 466.7 504.2 C 469.2 507.4 471.1 510.1 470.9 510.3 C 470.7 510.4 468.3 512.3 465.7 514.4 C 463 516.5 460.5 517.9 460.1 517.4 C 459.2 516.3 451.7 506.6 451.4 506.2 C 451.3 506 449.3 507.1 447.1 508.6 L 443 511.3 L 447.7 517.9 C 450.3 521.5 455.8 529.1 460 534.6 L 467.6 544.8 L 471.3 542.1 C 473.3 540.7 475 539 475 538.5 C 475 537.9 473 534.8 470.5 531.5 C 468 528.2 466 525.3 466.1 525 C 466.1 524.7 468.4 522.8 471.1 520.7 C 475.9 517 476.3 516.9 478 518.5 C 479.1 519.5 481.4 522.4 483.2 525.1 C 485 527.8 487 529.9 487.5 529.9 C 488.1 529.9 490 528.6 491.9 527 C 494.4 524.9 495.1 523.7 494.3 522.8 C 493.7 522.1 488.2 515 482 507 C 475.8 499 470.5 492.4 470.1 492.3 C 469.8 492.2 467.8 493.5 465.8 495.2 Z" stroke="none" style="fill: rgb(10, 65, 96);"/>
  <path d="M 421.8 523.8 C 419.1 525.3 417 527.2 417 528 C 417 528.8 417.9 536.5 419 545 C 420.1 553.5 421 562.1 421 564.1 C 421 566.1 421.3 567.9 421.6 568.3 C 421.9 568.6 424.2 567.9 426.7 566.7 C 430.9 564.6 431.1 564.4 430.8 560.7 C 430.6 556.9 430.6 556.8 437.3 553.2 L 444.1 549.5 L 446.6 552.4 L 449.1 555.2 L 453.5 552.9 C 456 551.6 457.9 550.3 457.8 550 C 457.3 549 427.6 521 427 521 C 426.7 521 424.4 522.3 421.8 523.8 Z M 436.9 543.3 C 435.2 544.7 428.8 548.2 428.6 547.9 C 428.2 547.3 426 534.5 426 532.7 C 426 531.8 428.4 533.7 431.7 537.1 C 434.8 540.3 437.1 543.2 436.9 543.3 Z" stroke="none" style="fill: rgb(10, 65, 96);"/>
  <path d="M 218.6 530.4 C 210.2 533.5 205 542 205 552.4 C 205 562.4 211.8 570 221.4 570.8 C 227.1 571.3 233.1 569.8 235 567.5 C 235.9 566.4 235.6 565.3 233.4 562.5 C 231 559.3 230.6 559.1 229 560.5 C 228.1 561.3 225.7 562 223.8 562 C 221 562 219.6 561.3 217.5 558.8 C 215.1 556 214.9 555 215.4 551.1 C 216.2 545.4 218.8 540.9 222.4 539.2 C 226.7 537.1 232.1 539.4 233.6 544 C 234.7 547.3 235 547.5 238.6 547.2 C 243.7 546.7 244.4 545.9 243.1 541.7 C 240 532.5 228 527 218.6 530.4 Z" stroke="none" style="fill: rgb(10, 65, 96);"/>
  <path d="M 173.1 537.9 C 170.6 540.4 170.4 542.8 172.6 545.8 C 175.6 550.1 183 547.4 183 542 C 183 537.2 176.4 534.6 173.1 537.9 Z" stroke="none" style="fill: rgb(10, 65, 96);"/>
  <path d="M 388.6 537.2 C 385.2 538.1 384.9 538.5 385.4 540.9 C 386.3 544.9 395.8 577.1 396.2 577.6 C 396.7 578 404.6 575.7 405.5 574.9 C 406.3 574.1 394.6 536.7 393.4 536.4 C 392.9 536.3 390.8 536.7 388.6 537.2 Z" stroke="none" style="fill: rgb(10, 65, 96);"/>
  <path d="M 249.2 542.2 C 247.9 547.1 248.3 547.5 254.2 548.5 C 256.3 548.9 258.2 549.5 258.4 549.9 C 258.6 550.2 258.2 553.2 257.4 556.5 C 256.7 559.8 255.3 565.9 254.5 570 C 253.6 574.1 252.7 578.2 252.4 579.1 C 252.1 580.4 253.1 580.9 257.1 581.7 C 260.7 582.5 262.3 582.4 262.5 581.6 C 262.7 581 264.1 574.6 265.6 567.3 C 267.1 560 268.6 553.6 269 553 C 269.5 552.2 271 552.2 274.4 553.1 C 277 553.7 279.3 554.1 279.5 553.8 C 279.7 553.6 280.2 551.6 280.6 549.3 C 281.2 545.3 281.2 545.2 277.9 544.5 C 274.3 543.8 254.7 539.2 251.9 538.4 C 250.7 538.1 250 539 249.2 542.2 Z" stroke="none" style="fill: rgb(10, 65, 96);"/>
  <path d="M 351.7 545.4 L 338.8 547.5 L 339.4 552 C 339.7 554.5 340.3 561.3 340.6 567.2 L 341.3 577.9 L 338.6 579.1 C 336.4 580.1 336 580.9 336 584.7 C 336 588.7 336.2 589 338.8 589 C 342.6 589 347.6 585.7 349.6 581.8 C 351 579 351.2 576.7 350.6 566.4 L 350 554.3 L 354.7 553.7 C 357.4 553.4 359.6 553.3 359.7 553.4 C 359.9 553.5 360.9 560.5 362 569 C 363.1 577.4 364.2 584.5 364.4 584.7 C 365.4 585.8 374 583.7 374 582.4 C 374 581.6 373.1 574.8 372.1 567.3 C 371 559.7 369.9 551.1 369.5 548.2 C 368.7 542.1 370.2 542.3 351.7 545.4 Z" stroke="none" style="fill: rgb(10, 65, 96);"/>
  <path d="M 288 548.9 C 288 550 287.3 558.9 286.5 568.6 C 285.6 578.3 285.1 586.5 285.4 586.7 C 285.7 587 287.9 587.5 290.3 587.7 L 294.8 588.2 L 303.1 576.1 C 307.6 569.5 311.5 564.2 311.7 564.4 C 311.9 564.5 311.7 570.1 311.2 576.8 C 310.4 590.3 310.2 590 317.7 590 C 320.8 590 320.9 589.9 321.4 584.7 C 321.7 581.9 322.1 572.4 322.4 563.7 L 322.9 547.9 L 317.7 548.2 L 312.6 548.5 L 304.8 559.9 C 300.5 566.2 296.8 571.5 296.5 571.8 C 296 572.3 296.2 570.6 298 556.7 C 298.5 552.4 299 548.4 299 547.9 C 299 547.4 296.5 547 293.5 547 C 288.7 547 288 547.3 288 548.9 Z" stroke="none" style="fill: rgb(10, 65, 96);"/>
</svg>